<?xml version="1.0" standalone="no"?>
<!DOCTYPE svg PUBLIC "-//W3C//DTD SVG 20010904//EN"
 "http://www.w3.org/TR/2001/REC-SVG-20010904/DTD/svg10.dtd">
<svg version="1.0" xmlns="http://www.w3.org/2000/svg"
 width="500.000000pt" height="500.000000pt" viewBox="0 0 500.000000 500.000000"
 preserveAspectRatio="xMidYMid meet">

<g transform="translate(0.000000,500.000000) scale(0.100000,-0.100000)"
fill="#000000" stroke="none">
<path d="M2756 4102 c-4 -97 -4 -185 -1 -194 9 -23 42 -33 60 -18 12 10 15 41
15 140 0 70 -3 155 -6 189 -7 58 -8 61 -34 61 l-27 0 -7 -178z"/>
<path d="M2390 4244 c-6 -15 -9 -99 -8 -193 3 -164 3 -166 26 -169 12 -2 24 3
26 10 3 7 7 95 10 196 l6 182 -25 0 c-18 0 -28 -7 -35 -26z"/>
<path d="M2576 4253 c-5 -17 -10 -261 -7 -329 1 -34 26 -49 52 -33 17 10 24
172 14 296 -6 78 -8 83 -30 83 -14 0 -26 -7 -29 -17z"/>
<path d="M2940 4076 c0 -168 1 -175 22 -190 15 -11 26 -12 40 -5 16 9 18 24
18 167 0 195 -2 202 -46 202 l-34 0 0 -174z"/>
<path d="M2214 4209 c-16 -18 -19 -40 -22 -163 -3 -118 -1 -144 11 -155 12 -9
21 -10 36 -1 20 10 21 19 21 175 0 176 -4 190 -46 144z"/>
<path d="M3130 4071 c0 -132 3 -162 16 -175 21 -22 31 -20 50 10 15 22 16 43
10 156 -7 138 -17 168 -58 168 -17 0 -18 -11 -18 -159z"/>
<path d="M3323 4133 c4 -6 1 -15 -7 -20 -8 -4 -15 -12 -16 -18 -2 -5 -7 -21
-12 -35 -20 -51 -41 -126 -40 -142 0 -10 -3 -18 -8 -18 -5 0 -9 -8 -9 -17 0
-10 -2 -34 -5 -53 -3 -19 -5 -39 -5 -43 -1 -5 -5 -6 -10 -3 -5 3 -11 0 -14 -8
-4 -11 -46 -14 -215 -14 -115 0 -215 -3 -221 -6 -12 -8 -15 -57 -5 -91 5 -19
12 -20 117 -17 106 4 422 -7 415 -13 -2 -2 -21 -4 -43 -6 -53 -4 -79 -17 -66
-33 7 -9 5 -17 -9 -29 -18 -15 -47 -17 -215 -17 -106 0 -196 -3 -198 -8 -3 -4
-3 -29 0 -55 l6 -49 46 3 c72 4 420 -4 384 -8 -40 -5 -43 -18 -5 -28 15 -4 21
-10 15 -12 -7 -3 -13 -11 -13 -18 0 -24 -34 -28 -233 -30 -109 -2 -200 -5
-203 -8 -3 -2 -2 -28 2 -56 l7 -51 261 -2 c143 0 241 -4 216 -7 -25 -3 -44
-10 -43 -16 1 -5 -5 -14 -13 -18 -8 -5 -12 -12 -9 -16 15 -25 -31 -32 -222
-34 -220 -2 -212 1 -198 -73 l6 -34 217 0 c206 0 280 -8 218 -24 -15 -4 -24
-11 -21 -16 3 -6 -2 -10 -11 -10 -10 0 -15 -3 -12 -6 4 -3 -3 -15 -14 -26 -18
-18 -34 -20 -201 -21 l-182 -2 -3 -52 -3 -53 253 0 c167 0 248 -4 238 -10 -8
-5 -28 -10 -44 -10 -21 0 -26 -3 -20 -12 5 -7 9 -22 9 -33 0 -27 -47 -33 -262
-34 l-173 -1 0 -55 0 -55 278 -2 c152 -1 244 -4 204 -5 -51 -3 -71 -7 -66 -15
5 -7 2 -9 -9 -5 -11 4 -14 2 -10 -8 3 -8 9 -13 13 -10 4 3 11 -2 14 -11 3 -8
2 -12 -4 -9 -6 3 -10 1 -10 -5 0 -6 -6 -8 -12 -5 -7 4 -4 -1 6 -9 22 -18 43
-16 -254 -19 l-145 -2 -1 -40 c-1 -75 -22 -70 269 -69 144 1 251 0 237 -2 -92
-15 -138 -28 -135 -38 3 -6 -4 -21 -15 -34 -18 -22 -25 -23 -187 -25 l-168 -2
-3 -26 c-2 -14 2 -38 8 -54 l11 -28 260 7 c177 4 258 3 254 -4 -3 -5 -36 -10
-73 -10 -37 0 -74 -4 -82 -10 -9 -5 -19 -5 -27 1 -8 7 -18 7 -30 0 -17 -10
-17 -10 1 -11 16 0 17 -2 5 -17 -8 -9 -9 -14 -4 -11 6 4 17 2 25 -3 11 -8 6
-9 -19 -6 -31 4 -32 3 -15 -10 15 -11 16 -16 6 -22 -19 -11 -8 -133 18 -210
11 -33 20 -69 20 -80 0 -28 19 -36 34 -16 10 14 17 15 33 7 19 -10 21 -8 27
35 3 25 6 87 6 138 0 76 -3 95 -18 108 -10 10 -24 17 -31 17 -7 0 -9 5 -6 10
3 6 17 10 31 10 31 0 42 -27 50 -123 6 -81 23 -177 30 -177 8 0 27 21 67 73
74 97 114 310 67 357 -27 27 -25 54 5 74 20 13 25 25 25 57 0 36 -3 42 -30 52
-16 6 -30 18 -30 27 0 33 12 56 33 65 16 7 23 20 25 48 3 33 -1 39 -27 55 -23
12 -31 24 -31 44 0 25 3 27 30 22 29 -6 30 -5 30 27 0 45 10 80 21 73 12 -7
12 -753 0 -824 -21 -128 -82 -231 -181 -306 -86 -64 -129 -75 -340 -84 -245
-11 -252 -13 -75 -20 83 -3 179 -1 215 3 36 5 80 10 97 10 18 1 34 6 37 12 3
8 64 12 97 6 12 -2 16 -38 7 -55 -15 -28 7 -18 70 29 106 80 191 242 211 405
6 47 11 259 11 472 0 305 3 388 13 388 6 0 28 -4 47 -10 51 -15 70 -5 70 36 0
25 -4 34 -17 35 -15 0 -15 2 2 9 17 7 16 9 -10 10 l-30 2 29 12 c29 11 29 11
-25 22 l-54 12 58 1 c31 0 57 6 57 11 0 6 -26 11 -57 12 l-58 1 60 7 c68 7 64
14 -7 11 -25 -1 -49 2 -53 8 -4 7 14 11 55 11 38 0 59 4 55 10 -3 6 -29 10
-57 10 -28 0 -49 3 -46 6 3 3 24 5 46 6 22 0 46 4 53 9 9 5 -9 9 -49 9 -80 0
-74 19 6 22 l57 1 -60 7 c-65 6 -58 17 15 23 40 3 38 4 -15 5 -43 2 -56 5 -45
12 8 5 11 10 5 10 -5 0 -3 5 5 10 12 8 10 10 -10 10 -18 0 -21 3 -12 9 11 6 9
9 -7 14 -11 2 -22 0 -24 -6 -2 -6 -19 1 -40 17 -50 38 -85 33 -113 -18 l-22
-39 -7 31 c-3 17 -13 36 -21 43 -8 7 -14 29 -14 55 0 37 3 43 23 46 18 2 23
10 25 41 4 43 -9 64 -42 69 -20 3 -21 6 -13 46 7 36 12 42 33 42 22 0 24 4 24
43 0 35 -5 46 -32 69 l-32 26 32 28 c32 28 32 29 32 124 0 52 -7 124 -15 159
-16 67 -57 152 -84 174 -11 9 -13 9 -8 0z m-194 -2034 c-13 -10 -25 -16 -27
-14 -7 7 22 32 36 32 9 0 5 -7 -9 -18z"/>
<path d="M2203 3748 c-131 -9 -187 -24 -191 -53 -2 -16 3 -20 25 -20 15 0 35
4 43 10 13 8 13 7 0 -10 -14 -17 -13 -18 2 -12 20 7 34 -8 16 -17 -7 -4 5 -4
27 -1 22 3 142 5 268 5 l227 0 0 49 c0 41 -4 51 -20 56 -23 7 -233 3 -397 -7z"/>
<path d="M2315 3539 c-282 -9 -319 -17 -301 -65 5 -13 9 -14 21 -4 12 10 15
10 15 -1 0 -11 2 -11 10 1 6 10 10 11 10 3 0 -15 27 -17 32 -3 2 5 13 7 26 4
18 -5 20 -9 11 -20 -10 -12 27 -14 235 -14 l246 0 0 50 c0 47 -1 50 -27 52
-55 4 -91 3 -278 -3z"/>
<path d="M2155 3333 c-144 -11 -148 -13 -140 -41 3 -15 7 -35 8 -45 1 -16 21
-17 297 -15 l295 3 3 53 3 52 -213 -2 c-117 -1 -231 -3 -253 -5z"/>
<path d="M2084 3123 c-64 -3 -73 -6 -78 -26 l-5 -21 -24 22 -24 22 -2 -47 -1
-48 332 5 333 5 0 45 0 45 -230 1 c-126 0 -262 -1 -301 -3z"/>
<path d="M2270 2920 c-91 -4 -187 -8 -213 -9 -45 -1 -47 -2 -37 -22 7 -11 9
-32 6 -45 l-6 -24 297 2 298 3 3 48 3 47 -38 1 c-21 0 -63 2 -93 3 -30 1 -129
-1 -220 -4z"/>
<path d="M2133 2713 l-101 -4 -4 -44 c-3 -37 0 -45 17 -49 11 -3 145 -6 298
-6 l277 0 0 55 0 55 -192 -2 c-106 -1 -239 -4 -295 -5z"/>
<path d="M2253 2502 l-223 -2 0 -28 c0 -15 -5 -33 -11 -39 -22 -22 40 -27 320
-27 l274 -1 7 25 c3 14 4 36 0 50 -7 29 21 27 -367 22z"/>
<path d="M2018 2271 c-15 -28 -15 -30 3 -47 16 -14 48 -18 196 -24 98 -3 228
-6 288 -6 l110 1 3 44 c2 28 -1 47 -10 52 -7 5 -139 8 -293 8 l-280 1 -17 -29z"/>
<path d="M2959 2093 c-10 -2 -24 -24 -32 -48 -8 -24 -10 -42 -6 -39 5 3 9 -4
9 -16 0 -12 -4 -19 -8 -16 -5 3 -3 -18 5 -47 7 -28 13 -85 13 -127 0 -43 4
-69 9 -62 4 7 21 16 37 21 l29 7 3 155 c2 136 1 155 -15 166 -9 7 -19 12 -22
12 -3 -1 -13 -3 -22 -6z"/>
<path d="M2196 2069 c-13 -20 -14 -20 -19 -2 -3 12 -5 9 -6 -10 0 -16 3 -26 8
-22 6 3 10 -24 10 -64 0 -71 18 -161 31 -161 5 0 15 -3 24 -6 14 -5 16 9 16
124 0 105 -3 134 -16 146 -21 21 -30 20 -48 -5z"/>
<path d="M2375 2059 c-12 -22 -15 -44 -11 -73 4 -22 11 -79 15 -126 5 -47 10
-86 10 -87 1 -2 14 -3 31 -3 l29 0 0 133 c0 137 -9 179 -41 185 -11 2 -23 -9
-33 -29z"/>
<path d="M2568 2066 c-20 -15 -24 -71 -7 -81 6 -4 10 -26 9 -49 -1 -22 -1 -76
-1 -118 l1 -78 36 0 36 0 -4 154 c-5 180 -18 212 -70 172z"/>
<path d="M2761 2066 c-9 -10 -11 -60 -9 -168 l3 -153 31 -3 31 -3 6 146 c3 81
2 158 -3 171 -11 27 -41 32 -59 10z"/>
<path d="M2916 1402 l-28 -4 6 -76 c3 -42 11 -95 16 -117 5 -22 10 -83 10
-136 0 -81 -3 -98 -20 -117 l-20 -21 100 2 c55 1 100 5 100 8 0 4 -27 9 -59
13 l-59 7 -7 59 c-4 32 -4 112 -1 177 4 65 3 138 -1 163 -8 42 -10 45 -37 42z"/>
<path d="M3580 896 c0 -30 -12 -39 -80 -61 -30 -10 -59 -21 -64 -26 -6 -5 -24
-9 -41 -9 -22 0 -32 -5 -32 -15 0 -8 4 -15 9 -15 4 0 8 -4 8 -10 0 -5 -12 -11
-27 -11 -17 -1 -21 -3 -11 -6 47 -12 278 68 278 96 0 13 -30 81 -35 81 -3 0
-5 -11 -5 -24z"/>
<path d="M3718 805 c-45 -60 -226 -108 -548 -145 -257 -29 -263 -30 -279 -43
-12 -10 -13 -9 -6 3 7 13 6 13 -7 2 -9 -7 -29 -14 -46 -15 -28 -2 -29 -4 -27
-47 2 -59 12 -79 36 -75 10 2 22 -1 25 -7 5 -7 2 -8 -6 -3 -10 6 -12 4 -7 -8
3 -9 -1 -18 -10 -21 -11 -4 -14 -2 -9 9 3 8 4 15 2 15 -3 0 -11 3 -20 6 -23 9
-20 -8 6 -36 l22 -23 -22 5 c-12 4 -20 2 -16 -3 3 -5 12 -9 20 -9 17 0 19 -20
2 -20 -50 -2 -121 -10 -126 -15 -3 -3 35 -5 84 -5 289 0 736 66 881 130 68 30
86 91 74 246 -6 81 -6 81 -23 59z m-857 -223 c-7 -2 -18 1 -23 6 -8 8 -4 9 13
5 13 -4 18 -8 10 -11z m-21 -25 c10 -20 10 -20 -3 -5 -8 10 -16 16 -19 13 -2
-3 -5 2 -5 10 0 19 14 10 27 -18z m33 -57 c10 -10 9 -11 -3 -4 -8 5 -22 7 -32
6 -9 -2 -19 1 -22 7 -9 14 43 7 57 -9z"/>
<path d="M3273 733 c9 -2 25 -2 35 0 9 3 1 5 -18 5 -19 0 -27 -2 -17 -5z"/>
<path d="M2750 564 c0 -3 10 -9 23 -14 l22 -9 -23 0 c-13 -1 -20 -5 -17 -11 4
-7 13 -7 26 0 11 6 17 15 14 19 -5 9 -45 22 -45 15z"/>
</g>
</svg>
