<?xml version="1.0" standalone="no"?>
<!DOCTYPE svg PUBLIC "-//W3C//DTD SVG 20010904//EN"
 "http://www.w3.org/TR/2001/REC-SVG-20010904/DTD/svg10.dtd">
<svg version="1.0" xmlns="http://www.w3.org/2000/svg"
 width="500.000000pt" height="500.000000pt" viewBox="0 0 500.000000 500.000000"
 preserveAspectRatio="xMidYMid meet">

<g transform="translate(0.000000,500.000000) scale(0.100000,-0.100000)"
fill="#000000" stroke="none">
<path d="M2383 4149 c-4 -13 -8 -17 -13 -9 -4 6 -13 -17 -19 -52 -22 -107 -29
-121 -31 -58 -5 119 -26 142 -95 104 -28 -15 -34 -24 -38 -63 -9 -71 -34 -176
-51 -208 -8 -16 -36 -46 -62 -66 -42 -33 -50 -36 -62 -23 -25 25 -26 105 -3
165 11 30 19 57 17 59 -2 2 -7 -6 -11 -17 -3 -12 -11 -21 -16 -21 -23 0 -60
-114 -69 -209 -5 -53 -12 -106 -16 -118 -5 -18 -1 -25 20 -34 33 -15 33 -42 1
-81 -14 -16 -25 -38 -25 -49 0 -11 11 -24 25 -31 15 -7 25 -19 25 -33 0 -12
-11 -31 -25 -43 -35 -31 -33 -67 6 -88 27 -13 78 -16 348 -16 l316 -1 -317 -6
-318 -6 -24 -25 c-32 -34 -42 -82 -21 -104 12 -11 17 -37 18 -86 2 -59 -1 -71
-15 -76 -13 -4 -18 -16 -18 -40 0 -28 5 -36 25 -44 18 -7 25 -17 25 -35 0 -17
-8 -29 -25 -37 -33 -15 -37 -77 -4 -85 16 -5 19 -10 13 -27 -4 -11 -8 -48 -8
-81 -2 -111 87 -239 208 -301 28 -14 62 -32 76 -40 38 -21 68 -17 86 11 19 29
32 32 41 8 20 -57 69 -69 109 -26 l25 27 25 -27 c33 -36 60 -34 98 8 l32 35
26 -30 c28 -32 41 -32 88 0 14 9 37 20 52 24 47 11 154 120 190 194 29 58 33
77 33 144 0 48 5 82 13 90 19 19 14 53 -13 78 -14 13 -25 30 -25 38 0 8 11 25
25 38 28 26 32 61 10 90 -16 22 -21 129 -5 139 18 11 11 85 -10 112 -25 32
-25 52 -2 60 39 15 42 50 7 91 -14 17 -25 35 -25 42 0 7 11 23 25 36 14 13 25
30 25 39 0 9 -11 27 -25 41 -27 27 -33 64 -10 64 29 0 35 34 24 136 -19 170
-64 268 -156 339 -47 36 -80 44 -101 23 -8 -8 -14 -5 -21 15 -10 27 -38 47
-66 47 -21 0 -45 -59 -45 -110 0 -36 -2 -40 -14 -27 -8 8 -18 42 -22 75 -3 34
-12 67 -20 73 -22 18 -57 7 -65 -21 l-7 -25 -1 25 c-2 45 -21 0 -21 -51 0 -25
-6 -53 -14 -64 -11 -16 -14 -11 -18 49 -3 36 -11 73 -18 81 -19 23 -61 19 -67
-6z m-77 -364 c-9 -14 -22 -25 -28 -25 -6 0 -2 10 10 23 12 13 23 32 23 43 1
17 2 17 6 1 3 -10 -3 -29 -11 -42z m450 -3 c-17 -16 -18 -16 -5 5 7 12 15 20
18 17 3 -2 -3 -12 -13 -22z m-296 14 c0 -2 -8 -10 -17 -17 -16 -13 -17 -12 -4
4 13 16 21 21 21 13z m-222 -233 c-49 -2 -127 -2 -175 0 -49 1 -9 3 87 3 96 0
136 -2 88 -3z m135 0 c-7 -2 -19 -2 -25 0 -7 3 -2 5 12 5 14 0 19 -2 13 -5z
m170 -150 c-100 -2 -266 -2 -370 0 -103 1 -21 2 182 2 204 0 288 -1 188 -2z
m-128 -317 c11 -2 -71 -4 -182 -5 -173 -1 -203 -3 -203 -16 0 -19 -4 -19 -41
0 -16 9 -28 19 -25 23 4 7 405 5 451 -2z m-137 -133 c-43 -2 -113 -2 -155 0
-43 1 -8 3 77 3 85 0 120 -2 78 -3z m-185 -140 c-18 -2 -48 -2 -65 0 -18 2 -4
4 32 4 36 0 50 -2 33 -4z"/>
<path d="M1765 3259 c4 -5 -1 -19 -11 -30 -10 -11 -21 -41 -25 -67 l-6 -47 -2
42 c0 23 -6 45 -12 49 -8 5 -10 -87 -7 -337 5 -306 7 -352 26 -419 73 -268
273 -459 537 -513 l70 -14 3 -486 2 -487 -258 0 c-155 0 -271 -4 -289 -10 -38
-14 -54 -47 -60 -126 -5 -54 -3 -63 20 -90 l25 -29 707 0 707 0 19 24 c15 18
19 39 19 103 0 70 -3 82 -25 103 l-24 25 -281 0 -280 0 2 486 3 486 92 23
c140 36 215 76 306 164 43 42 83 85 90 97 7 12 25 41 42 65 16 24 45 89 63
144 l35 100 4 352 5 352 -27 25 c-32 30 -61 33 -93 10 l-22 -15 0 -342 c0
-329 -1 -346 -24 -428 -53 -194 -176 -326 -362 -388 -97 -33 -335 -42 -450
-16 -223 49 -385 213 -430 435 -14 73 -16 128 -12 400 l6 314 -28 28 c-27 27
-69 40 -55 17z m-38 -211 c-3 -7 -5 -2 -5 12 0 14 2 19 5 13 2 -7 2 -19 0 -25z
m0 -40 c-3 -8 -6 -5 -6 6 -1 11 2 17 5 13 3 -3 4 -12 1 -19z m0 -70 c-2 -13
-4 -5 -4 17 -1 22 1 32 4 23 2 -10 2 -28 0 -40z m0 -90 c-3 -7 -5 -2 -5 12 0
14 2 19 5 13 2 -7 2 -19 0 -25z"/>
</g>
</svg>
